<svg width="20" height="20" viewBox="0 0 20 20" fill="none" xmlns="http://www.w3.org/2000/svg">
<path fill-rule="evenodd" clip-rule="evenodd" d="M2.23117 0.0297778C1.13996 0.213245 0.202964 1.17253 0.032823 2.28045C0.00462252 2.46407 -0.00499927 4.96805 0.00239308 10.1791L0.0132665 17.8089L0.12337 18.1219C0.430719 18.9955 1.01741 19.5824 1.89069 19.8899L2.20359 20H10.0066H17.8097L18.1226 19.8895C19.0255 19.5707 19.648 18.9208 19.9282 18.0045C19.9968 17.7801 20 17.4257 20 9.98345V2.19715L19.8899 1.88413C19.5825 1.01054 18.9959 0.423632 18.1226 0.116171L17.8097 0.00602759L10.124 0.000471534C5.78568 -0.00265864 2.34808 0.0100968 2.23117 0.0297778ZM8.26497 6.14942C8.8909 6.28206 9.42804 6.66081 9.66072 7.13362C9.88089 7.581 9.8609 8.28647 9.61406 8.78056C9.48596 9.03704 9.20756 9.33617 8.96232 9.48082L8.79804 9.57774L9.11361 9.73961C9.66612 10.023 10.0272 10.4653 10.1234 10.9767C10.2239 11.5105 10.1432 12.2196 9.93944 12.5941C9.77301 12.9 9.36385 13.2564 8.94307 13.4618C8.32833 13.762 8.28253 13.7668 5.87044 13.7875L3.74856 13.8057V9.948V6.0903L5.87044 6.09096C7.59051 6.09151 8.04394 6.10259 8.26497 6.14942ZM15.0131 6.99022V7.38149H13.4486H11.8841V6.99022V6.59895H13.4486H15.0131V6.99022ZM5.43041 8.30388V9.1871L6.45713 9.17446C7.47153 9.16194 7.48647 9.16053 7.70315 9.05892C8.06076 8.89114 8.2451 8.55183 8.18749 8.16733C8.15272 7.9355 8.08642 7.81201 7.91663 7.66286C7.67507 7.45071 7.4869 7.42062 6.40112 7.42062H5.43041V8.30388ZM13.8117 8.04744C14.5665 8.15664 15.254 8.57699 15.6998 9.20204C16.0587 9.70506 16.2201 10.1983 16.2532 10.8932L16.2761 11.3725H14.2584C12.9812 11.3725 12.232 11.3865 12.217 11.4108C12.1796 11.4713 12.2735 11.92 12.3582 12.0862C12.4795 12.3239 12.6937 12.5347 12.9338 12.6527C13.1332 12.7507 13.196 12.7615 13.5659 12.7615C13.9383 12.7615 13.9956 12.7515 14.1805 12.654C14.4306 12.5221 14.6312 12.3495 14.741 12.1718L14.8239 12.0376H15.471H16.118L16.0933 12.1612C16.0354 12.4508 15.7894 12.8669 15.5054 13.1556C15.041 13.6278 14.4575 13.8646 13.6605 13.9044C13.3968 13.9176 13.1212 13.9076 12.9565 13.879C12.1048 13.7309 11.3431 13.1554 10.9641 12.3737C10.0639 10.5171 11.127 8.34011 13.077 8.04673C13.3602 8.00413 13.5131 8.00428 13.8117 8.04744ZM13.1943 9.21546C12.7258 9.33797 12.3258 9.77032 12.2516 10.2345L12.2261 10.3943H13.4639H14.7017L14.6759 10.2867C14.565 9.82401 14.3233 9.48618 13.985 9.32079C13.7655 9.21351 13.3921 9.16378 13.1943 9.21546ZM5.45971 10.378C5.4436 10.3941 5.43041 10.8722 5.43041 11.4403V12.4734L6.55491 12.4609C7.63959 12.4489 7.68665 12.4452 7.88385 12.356C8.12428 12.2472 8.37288 11.9932 8.44106 11.7865C8.51138 11.5733 8.47865 11.1138 8.37945 10.9225C8.33483 10.8364 8.22429 10.7092 8.13383 10.6398C7.83309 10.4092 7.67671 10.3825 6.52554 10.3647C5.95543 10.3559 5.47582 10.3619 5.45971 10.378Z" fill="black"/>
</svg>
