<svg width="20" height="20" viewBox="0 0 20 20" fill="none" xmlns="http://www.w3.org/2000/svg">
<path fill-rule="evenodd" clip-rule="evenodd" d="M2.02459 0.0491353C1.61978 0.125277 1.09595 0.414206 0.760663 0.746275C0.412563 1.09112 0.132083 1.61083 0.0509199 2.06159C-0.0169733 2.43853 -0.0169733 17.5554 0.0509199 17.9323C0.132083 18.3831 0.412563 18.9028 0.760663 19.2477C1.1089 19.5926 1.62428 19.8693 2.06704 19.9491C2.44386 20.017 17.5561 20.017 17.933 19.9491C18.3836 19.8679 18.9031 19.5873 19.2479 19.2391C19.5927 18.8908 19.8693 18.3752 19.9491 17.9323C20.017 17.5554 20.017 2.43853 19.9491 2.06159C19.7743 1.09121 18.9031 0.219647 17.933 0.0448623C17.586 -0.017642 2.35811 -0.0135509 2.02459 0.0491353ZM11.0733 3.24763C13.967 3.74476 16.2466 5.98923 16.7509 8.83779C16.8589 9.44765 16.8592 10.4982 16.7515 11.1107C16.6357 11.7695 16.393 12.4799 16.0611 13.1313C15.3924 14.444 14.3392 15.4832 13.022 16.1298C12.0226 16.6205 11.4059 16.7688 10.2272 16.8019C9.26067 16.829 8.62987 16.7477 7.86414 16.4973C4.59563 15.4285 2.63563 12.0899 3.2803 8.68937C3.51734 7.43879 4.1097 6.28962 5.00508 5.34328C6.05174 4.23697 7.43396 3.49369 8.90576 3.24568C9.4005 3.16231 10.5828 3.16335 11.0733 3.24763ZM9.31834 4.26807C8.92362 4.31907 8.72757 4.36171 8.72757 4.39653C8.72757 4.41421 8.80173 4.5309 8.89235 4.65582C9.26631 5.17131 10.0733 6.42022 10.4376 7.04721C10.7404 7.5683 10.8439 7.7119 10.9021 7.69158C10.9433 7.67721 11.2107 7.55561 11.4963 7.42138C12.2261 7.07835 12.8503 6.649 13.3806 6.12542L13.8301 5.68162L13.5851 5.47769C12.4945 4.56999 10.7685 4.08064 9.31834 4.26807ZM7.05569 5.03635C5.84093 5.76667 4.95014 6.87675 4.4997 8.22161C4.29329 8.83784 4.23103 8.78843 5.17158 8.75511C6.05006 8.72397 6.89768 8.6381 7.74953 8.49395C8.34216 8.39363 9.49216 8.14156 9.57274 8.09429C9.60409 8.07588 9.48098 7.82895 9.24086 7.4286C8.68426 6.50077 7.54998 4.81479 7.48236 4.81479C7.45037 4.81479 7.25837 4.91447 7.05569 5.03635ZM14.0211 6.87984C13.4451 7.45938 12.885 7.85613 12.0223 8.29598C11.6473 8.48713 11.3351 8.64837 11.3285 8.65433C11.3168 8.66464 11.7616 9.68322 11.7902 9.71181C11.7978 9.71945 12.1019 9.70354 12.4659 9.67653C13.3803 9.60862 14.7327 9.69826 15.6464 9.88741C15.7694 9.91287 15.7714 9.90969 15.7714 9.68831C15.7714 9.10108 15.5303 8.1727 15.2038 7.50224C14.9989 7.08158 14.5599 6.39817 14.5046 6.4139C14.489 6.41835 14.2714 6.628 14.0211 6.87984ZM9.63645 9.18423C8.22682 9.57762 6.21679 9.859 4.80803 9.86014L4.22862 9.86059V10.241C4.22862 10.9625 4.44671 11.8444 4.80017 12.5522C4.99926 12.9509 5.40362 13.5703 5.56086 13.7172L5.6746 13.8235L5.89991 13.4899C6.93949 11.9506 8.50081 10.7108 10.1257 10.1345L10.5921 9.96901L10.3656 9.50566C10.2411 9.25087 10.1334 9.04431 10.1264 9.04672C10.1193 9.04908 9.89889 9.11099 9.63645 9.18423ZM12.4681 10.672C12.3385 10.6894 12.2211 10.7148 12.2073 10.7286C12.1935 10.7424 12.2745 11.0283 12.3873 11.364C12.6497 12.1452 12.9609 13.2719 13.1145 13.9972C13.3031 14.8877 13.2347 14.8333 13.6923 14.456C14.6709 13.6493 15.3644 12.5115 15.6524 11.2402L15.7158 10.9607L15.4595 10.8895C14.8989 10.7337 14.3733 10.6693 13.5446 10.655C13.0822 10.647 12.5978 10.6546 12.4681 10.672ZM10.4317 11.227C8.86772 11.8764 7.49304 12.9757 6.68891 14.2203C6.58544 14.3804 6.50082 14.5373 6.50082 14.569C6.50082 14.6405 7.00697 14.9786 7.43242 15.1913C8.73702 15.8438 10.3652 15.9664 11.7666 15.5177C12.2796 15.3534 12.2532 15.4005 12.1386 14.8549C11.8856 13.6511 11.189 11.2791 11.0252 11.0638C10.9853 11.0114 10.8835 11.0394 10.4317 11.227Z" fill="black"/>
</svg>
