<svg width="20" height="20" viewBox="0 0 20 20" fill="none" xmlns="http://www.w3.org/2000/svg">
<path fill-rule="evenodd" clip-rule="evenodd" d="M1.65339 0.0526481C0.881981 0.239639 0.204967 0.936499 0.0453985 1.70775C-0.0151328 2.00035 -0.0151328 17.9967 0.0453985 18.2893C0.209302 19.0814 0.921307 19.7937 1.71302 19.9577C1.85935 19.988 4.29005 20.0004 10.0117 20C18.9284 19.9994 18.3484 20.0153 18.8418 19.7566C19.1969 19.5703 19.6029 19.1486 19.773 18.7894C19.8493 18.6282 19.9311 18.4032 19.9546 18.2893C20.0151 17.9967 20.0151 2.00035 19.9546 1.70775C19.7953 0.938101 19.1147 0.236162 18.3536 0.0566724C18.1344 0.00498219 17.0953 -0.00201142 9.98047 0.00041095C3.56587 0.00255982 1.81463 0.0135777 1.65339 0.0526481ZM10.9841 2.59437C12.6896 2.81962 14.2101 3.57016 15.4094 4.77884C16.9424 6.32369 17.721 8.30737 17.6422 10.4674C17.5921 11.84 17.2116 13.087 16.4862 14.2557C15.633 15.6303 14.289 16.7405 12.765 17.3293C12.3491 17.49 12.144 17.4997 12.0094 17.3651L11.9136 17.2692L11.9133 16.0464C11.9129 14.4876 11.8593 14.1527 11.5439 13.7394L11.4113 13.5657L11.7503 13.5153C13.2779 13.2881 14.245 12.5881 14.6389 11.4246C14.8612 10.7681 14.9448 9.76802 14.8263 9.1829C14.7223 8.6694 14.5021 8.19926 14.2094 7.86568L14.0968 7.73749L14.1669 7.51033C14.2732 7.16554 14.2576 6.44551 14.1349 6.03289L14.0419 5.72032L13.8362 5.70848C13.4551 5.68657 12.8327 5.91462 12.2046 6.3063L11.9292 6.47798L11.443 6.37452C10.998 6.27985 10.879 6.2709 10.0391 6.26918C9.12909 6.26731 8.89778 6.28888 8.33105 6.42847L8.08752 6.48845L7.80384 6.31154C7.16725 5.91458 6.54686 5.68645 6.16383 5.70848L5.95807 5.72032L5.86512 6.03289C5.74238 6.44551 5.7268 7.16554 5.8331 7.51033L5.90316 7.73749L5.79393 7.86232C5.21388 8.52515 5.00432 9.4737 5.17862 10.6478C5.41688 12.2532 6.28392 13.1248 7.99247 13.4765C8.19921 13.5191 8.41908 13.5539 8.48097 13.5539H8.5936L8.46047 13.7284C8.32297 13.9087 8.19027 14.2169 8.14399 14.4637C8.11919 14.596 8.10185 14.6103 7.8748 14.6859C7.51813 14.8047 7.17955 14.8263 6.87572 14.7497C6.49469 14.6537 6.24354 14.458 5.91351 14.0001C5.53626 13.4768 5.23887 13.256 4.81469 13.1843C4.60529 13.1489 4.37644 13.2197 4.37644 13.3198C4.37644 13.3596 4.45896 13.4594 4.55979 13.5414C5.03654 13.9295 5.21743 14.1492 5.44617 14.618C5.6246 14.9838 5.70899 15.1099 5.87984 15.2661C6.29161 15.6426 6.68784 15.7608 7.44206 15.7321C7.72129 15.7214 7.98048 15.6998 8.01808 15.6841C8.0819 15.6573 8.08643 15.709 8.08643 16.4623C8.08643 17.2669 8.08615 17.2695 7.99055 17.3651C7.855 17.5007 7.65107 17.4901 7.22423 17.3251C4.94582 16.4448 3.18987 14.4635 2.58338 12.0888C2.40421 11.3873 2.36797 11.0674 2.36855 10.1939C2.36933 9.05338 2.49774 8.34511 2.87862 7.38082C3.91 4.76931 6.27345 2.94163 9.08605 2.58058C9.525 2.52424 10.507 2.53135 10.9841 2.59437ZM5.22892 13.4887C5.23946 13.5441 5.222 13.5574 5.15159 13.5473C5.10106 13.5402 5.05459 13.5026 5.04701 13.4629C5.03647 13.4075 5.05392 13.3942 5.12433 13.4043C5.17487 13.4115 5.22134 13.449 5.22892 13.4887ZM5.54583 13.7452C5.60405 13.8541 5.50232 13.9324 5.41547 13.8455C5.38099 13.811 5.35275 13.7577 5.35275 13.727C5.35275 13.6451 5.49967 13.6589 5.54583 13.7452ZM5.86801 14.1606C5.89984 14.2304 5.90081 14.2715 5.87137 14.301C5.80455 14.3678 5.66517 14.2713 5.66517 14.1582C5.66517 14.0254 5.80724 14.0271 5.86801 14.1606ZM6.2301 14.5683C6.30606 14.6523 6.28673 14.7651 6.1964 14.7651C6.11564 14.7651 6.01664 14.656 6.01664 14.567C6.01664 14.4676 6.1397 14.4683 6.2301 14.5683ZM6.82983 14.9749C6.83917 15.022 6.81312 15.0386 6.73025 15.0386C6.61251 15.0386 6.52433 14.9779 6.52433 14.8969C6.52433 14.7706 6.80347 14.8418 6.82983 14.9749ZM8.00832 14.8818C8.09256 14.9356 8.00977 15.0547 7.87722 15.0705C7.75682 15.0849 7.69988 14.9912 7.77444 14.9014C7.82942 14.8351 7.9228 14.8273 8.00832 14.8818ZM7.42417 14.982C7.46557 15.0319 7.46354 15.0534 7.41273 15.1043C7.3301 15.1869 7.14917 15.1436 7.14917 15.0411C7.14917 14.9198 7.33873 14.879 7.42417 14.982Z" fill="black"/>
</svg>
