<svg width="14" height="14" viewBox="0 0 14 14" fill="none" xmlns="http://www.w3.org/2000/svg">
<path fill-rule="evenodd" clip-rule="evenodd" d="M4.75465 0.0459622C4.52441 0.15449 4.38493 0.366048 4.08527 1.06148C3.65726 2.05472 3.60468 2.08824 2.28004 2.21211C1.61641 2.27415 1.32478 2.42134 1.23898 2.73754C1.18749 2.92726 1.22348 3.3017 1.33816 3.77013C1.42762 4.13549 1.44223 4.23924 1.444 4.52208C1.44573 4.79989 1.43766 4.86615 1.39137 4.95419C1.31021 5.10852 1.14749 5.2917 0.900792 5.50645C0.470265 5.88123 0.12371 6.2429 0.0602725 6.38364C-0.0200908 6.56195 -0.0200908 6.77518 0.0602725 6.95349C0.12371 7.09422 0.470265 7.4559 0.900792 7.83067C1.14749 8.04543 1.31021 8.22861 1.39137 8.38293C1.43766 8.47098 1.44573 8.53724 1.444 8.81505C1.44223 9.09789 1.42762 9.20163 1.33816 9.567C1.22348 10.0354 1.18749 10.4099 1.23898 10.5996C1.32478 10.9158 1.61641 11.063 2.28004 11.125C3.13962 11.2054 3.35735 11.2516 3.55653 11.3959C3.71662 11.5119 3.86458 11.7528 4.05697 12.2107C4.45318 13.1539 4.64946 13.3712 5.07044 13.333C5.27174 13.3148 5.50704 13.2071 6.02094 12.8979C6.86476 12.3901 7.08792 12.3864 7.89081 12.8671C8.44674 13.2 8.69403 13.3147 8.89496 13.3329C9.31701 13.3712 9.51287 13.1545 9.90935 12.2107C10.1017 11.7528 10.2497 11.5119 10.4098 11.3959C10.609 11.2516 10.8267 11.2054 11.6863 11.125C12.3499 11.063 12.6413 10.9159 12.7275 10.5996C12.7779 10.4142 12.7401 10.0137 12.6298 9.567C12.5163 9.10727 12.4769 8.66072 12.5342 8.48474C12.5997 8.2839 12.8371 8.01005 13.2312 7.68069C13.5316 7.42962 13.8226 7.11804 13.8952 6.96973C14.0877 6.57625 13.9342 6.2548 13.2944 5.71115C12.8204 5.3084 12.6028 5.06261 12.5342 4.85239C12.4769 4.67641 12.5163 4.22986 12.6298 3.77013C12.7401 3.32341 12.7779 2.92288 12.7275 2.73754C12.6413 2.4212 12.3499 2.27415 11.6863 2.21211C10.8267 2.13172 10.609 2.08551 10.4098 1.94124C10.2497 1.82525 10.1017 1.58435 9.90935 1.1264C9.51314 0.183255 9.31687 -0.0340729 8.89589 0.00409895C8.69409 0.0223919 8.47876 0.121294 7.92584 0.449665C7.07641 0.954103 6.88896 0.953529 6.03083 0.443923C5.45601 0.102564 5.26808 0.0188099 5.04706 0.00546614C4.90739 -0.00295573 4.8381 0.00664192 4.75465 0.0459622ZM9.64314 4.62396C9.81712 4.69842 10.0054 4.90949 10.0591 5.09026C10.1118 5.26763 10.1112 5.39095 10.057 5.57667C10.0151 5.71995 9.95781 5.78115 8.43687 7.30622C7.56966 8.17581 6.80691 8.91887 6.74185 8.95748C6.58211 9.05237 6.3104 9.07323 6.10499 9.00643C5.96849 8.96202 5.88777 8.88885 4.99631 8.00141C3.97598 6.98564 3.90141 6.89461 3.87429 6.63173C3.84891 6.38599 3.92271 6.19191 4.1118 6.00698C4.29891 5.824 4.49537 5.74894 4.71817 5.77533C4.98882 5.8074 5.06954 5.86742 5.74479 6.53874L6.38278 7.17303L7.63318 5.92539C8.32087 5.23917 8.92315 4.65798 8.97155 4.63386C9.18764 4.52602 9.40683 4.52279 9.64314 4.62396Z" fill="#2079FF"/>
</svg>
