<svg width="20" height="20" viewBox="0 0 20 20" fill="none" xmlns="http://www.w3.org/2000/svg">
<path fill-rule="evenodd" clip-rule="evenodd" d="M2.23117 0.0297778C1.13996 0.213245 0.202964 1.17253 0.032823 2.28045C0.00462252 2.46407 -0.00499927 4.96805 0.00239308 10.1791L0.0132665 17.8089L0.12337 18.1219C0.430719 18.9955 1.01741 19.5824 1.89069 19.8899L2.20359 20H10.0066H17.8097L18.1226 19.8895C19.0255 19.5707 19.648 18.9208 19.9282 18.0045C19.9968 17.7801 20 17.4257 20 9.98345V2.19715L19.8899 1.88413C19.5825 1.01054 18.9959 0.423632 18.1226 0.116171L17.8097 0.00602759L10.124 0.000471534C5.78568 -0.00265864 2.34808 0.0100968 2.23117 0.0297778ZM16.0161 5.23342C16.143 5.31143 16.2647 5.5158 16.2647 5.65086C16.2647 5.75349 14.3178 14.3744 14.2633 14.5132C14.1677 14.7566 13.8072 14.9318 13.5489 14.8605C13.4757 14.8403 12.7386 14.3641 11.911 13.8024C11.0834 13.2406 10.3945 12.781 10.38 12.781C10.3656 12.781 10.0337 13.0855 9.64241 13.4576C8.74082 14.3149 8.75138 14.307 8.51447 14.307C8.3527 14.307 8.30322 14.2876 8.18976 14.1798C8.06902 14.0651 8.00342 13.8975 7.52018 12.468C7.22554 11.5965 6.96482 10.8631 6.9408 10.8383C6.91679 10.8135 6.23712 10.614 5.43041 10.3951C4.10953 10.0365 3.953 9.98552 3.85612 9.88199C3.78876 9.80996 3.74856 9.72361 3.74856 9.65087C3.74856 9.37115 3.59167 9.43641 8.59857 7.63371C11.1478 6.71586 13.6471 5.81504 14.1526 5.63185C14.6581 5.44865 15.195 5.25697 15.3456 5.20591C15.6494 5.10289 15.8148 5.10969 16.0161 5.23342ZM10.6935 8.69315C8.95238 9.69317 7.51377 10.5334 7.49664 10.5604C7.4795 10.5874 7.46523 10.6549 7.46488 10.7104C7.46409 10.846 8.30346 13.3021 8.35665 13.3199C8.4073 13.3368 8.41919 13.268 8.52128 12.3702C8.56536 11.9828 8.60983 11.6265 8.6202 11.5783C8.63263 11.5201 9.54408 10.7508 11.3274 9.29321C12.8059 8.08461 14.0289 7.07642 14.045 7.05279C14.0984 6.97446 14.0556 6.89252 13.9567 6.88372C13.8898 6.87773 12.8683 7.44414 10.6935 8.69315Z" fill="black"/>
</svg>
