<svg width="20" height="18" viewBox="0 0 20 18" fill="none" xmlns="http://www.w3.org/2000/svg">
<path fill-rule="evenodd" clip-rule="evenodd" d="M7.81543 0.0317617C6.42555 0.0788129 4.84212 0.180798 3.71194 0.296051C2.74226 0.394939 2.09145 0.656624 1.4515 1.20494C0.794201 1.76812 0.449547 2.42627 0.33504 3.33689C0.135298 4.92533 0 7.21314 0 9.00274C0 10.7923 0.135298 13.0801 0.33504 14.6686C0.449547 15.5792 0.794201 16.2374 1.4515 16.8005C2.09079 17.3483 2.74097 17.6099 3.71194 17.71C7.46757 18.0973 12.6968 18.0966 16.3121 17.7082C17.3279 17.5991 18.0292 17.301 18.65 16.7142C18.9911 16.3918 19.2005 16.1144 19.3705 15.7597C19.6107 15.2583 19.6692 14.9326 19.8102 13.3137C20.1042 9.9376 20.0552 6.37755 19.6729 3.33689C19.5572 2.41726 19.2205 1.77966 18.5368 1.18545C17.9423 0.668765 17.2692 0.400042 16.3121 0.297247C14.0135 0.0503429 10.5051 -0.059279 7.81543 0.0317617ZM11.8017 4.92058C12.8629 4.96879 13.9976 5.05653 14.3224 5.11554C14.7225 5.18821 15.252 5.4367 15.5202 5.67755C15.931 6.04654 16.0217 6.3052 16.1867 7.57748C16.2531 8.08952 16.2531 9.91596 16.1867 10.428C16.0792 11.257 15.9787 11.7227 15.8627 11.9297C15.5602 12.4693 14.8277 12.8569 13.9464 12.9438C12.4303 13.0934 9.83516 13.1595 8.26486 13.0884C7.03932 13.033 6.0165 12.9538 5.67333 12.8878C5.26474 12.8092 4.75727 12.5695 4.48769 12.3276C4.07812 11.9603 3.99813 11.7343 3.82132 10.4456C3.75352 9.95122 3.75352 8.05425 3.82132 7.55988C3.93833 6.70687 4.03146 6.2787 4.14339 6.07902C4.40707 5.60868 5.06667 5.21024 5.76368 5.10023C6.82469 4.93279 9.99367 4.83851 11.8017 4.92058ZM8.51888 9.00274V11.1479L9.14007 10.8055C9.48172 10.6173 10.3514 10.1385 11.0726 9.74176C11.7939 9.34498 12.384 9.01242 12.384 9.00274C12.384 8.99306 11.7939 8.6605 11.0726 8.26371C10.3514 7.86693 9.48172 7.38822 9.14007 7.19994L8.51888 6.8576V9.00274Z" fill="black"/>
</svg>
